<?xml version="1.0" standalone="no"?>
<!DOCTYPE svg PUBLIC "-//W3C//DTD SVG 1.1//EN" "http://www.w3.org/Graphics/SVG/1.1/DTD/svg11.dtd" >
<svg xmlns="http://www.w3.org/2000/svg">
<metadata>
This is a custom SVG webfont generated by Font Squirrel.
Copyright   : Copyright  1987 1991 1993 2002 Adobe Systems Incorporated  All Rights Reserved
Designer    : Paul Renner
Foundry URL : httpwwwadobecomtype
</metadata>
<defs>
<font id="FuturaStdLight" horiz-adv-x="1269" >
<font-face units-per-em="2048" ascent="1690" descent="-358" />
<missing-glyph horiz-adv-x="634" />
<glyph unicode=" "  horiz-adv-x="634" />
<glyph unicode="&#x09;" horiz-adv-x="634" />
<glyph unicode="&#xa0;" horiz-adv-x="634" />
<glyph unicode="!" horiz-adv-x="655" d="M244 63.5q0 34.5 24.5 59t59 24.5t59.5 -24.5t25 -59t-25 -59t-59.5 -24.5t-59 24.5t-24.5 59zM279 293v1251h98v-1251h-98z" />
<glyph unicode="&#x22;" horiz-adv-x="569" d="M119 1544h98l-22 -491h-56zM352 1544h99l-23 -491h-55z" />
<glyph unicode="#" d="M121 467v98h262l47 332h-252v98h266l66 435h102l-65 -435h278l66 435h102l-67 -435h225v-98h-242l-53 -332h242v-98h-258l-76 -467h-94l73 467h-276l-68 -467h-98l68 467h-248zM481 565h279l49 332h-279z" />
<glyph unicode="$" d="M170 313l84 39q47 -125 144 -202q90 -72 203 -73q9 0 17 1l1 708q-10 4 -29 15q-82 41 -124 65.5t-99.5 70.5t-83 104.5t-25.5 132.5q0 164 99.5 271t261.5 120v215h92v-219q98 -12 182 -69.5t131 -143.5l-76 -62q-94 164 -237 180v-614l70 -35q58 -29 74 -38l63 -37 q47 -28 62 -44l46 -49q31 -33 42 -61.5t21.5 -69.5t10.5 -88q0 -162 -114 -289t-275 -157v-232h-93v228q-160 4 -276.5 91.5t-171.5 241.5zM356 1178q0 -53 19.5 -95.5t60.5 -76t74 -53t88 -48.5q14 -6 20 -10v571q-109 0 -185.5 -87.5t-76.5 -200.5zM711 741v-659 q125 31 207.5 130t82.5 226q0 59 -24.5 106.5t-75.5 86.5t-86.5 58t-103.5 52z" />
<glyph unicode="%" horiz-adv-x="1359" d="M57 1253q0 133 90.5 219.5t221.5 86.5t221 -86.5t90 -219.5q0 -129 -90 -215t-221 -86t-221.5 86t-90.5 215zM143 1253q0 -88 66.5 -151.5t159 -63.5t159 63.5t66.5 151.5q0 92 -66.5 156t-159 64t-159 -64t-66.5 -156zM188 2l914 1577l67 -35l-917 -1579zM680 287 q0 133 90 219t221 86t221.5 -86t90.5 -219q0 -129 -90.5 -215t-221.5 -86t-221 86t-90 215zM766 287q0 -88 66.5 -151.5t158.5 -63.5t159 63.5t67 151.5q0 92 -67 155.5t-159 63.5t-158.5 -63.5t-66.5 -155.5z" />
<glyph unicode="&#x26;" horiz-adv-x="1314" d="M45 377q0 78 32 151.5t69.5 122.5t115.5 111.5t119 90.5t133 85q-4 6 -34.5 48l-40.5 56l-31 52q-23 37 -31 59.5t-16.5 56t-8.5 66.5q0 123 89 210t212 87q119 0 200 -84t81 -203q0 -63 -21.5 -117.5t-68.5 -102.5t-88 -81t-111 -80l381 -520l197 215l75 -41l-215 -246 l236 -313h-107l-194 256q-156 -133 -294 -210t-275 -77q-170 0 -287 120t-117 288zM143 387q0 -133 86 -229.5t220 -96.5q84 0 186 49.5t164.5 95.5t161.5 128l-390 526l-98 -65q-74 -47 -117 -79t-100 -85t-85 -113.5t-28 -130.5zM451 1266q0 -39 14 -80t32 -68l47 -70 l44 -67q20 16 66 49t70 53.5t54.5 53t44 69.5t13.5 82q0 80 -54.5 136.5t-134.5 56.5q-82 0 -139 -65.5t-57 -149.5z" />
<glyph unicode="'" horiz-adv-x="454" d="M178 1544h98l-22 -491h-55z" />
<glyph unicode="(" horiz-adv-x="491" d="M135 604q0 254 36 529.5t110 463.5l75 -53q-129 -457 -129 -940q0 -451 129 -915l-75 -51q-72 184 -109 454t-37 512z" />
<glyph unicode=")" horiz-adv-x="491" d="M135 -311q129 465 129 915q0 483 -129 940l76 53q74 -188 109.5 -463.5t35.5 -529.5q0 -242 -36.5 -512t-108.5 -454z" />
<glyph unicode="*" horiz-adv-x="1267" d="M270 1243l31 96l291 -102l-8 307h100l-8 -307l291 102l30 -96l-295 -88l189 -244l-82 -59l-174 254l-176 -254l-80 57l186 246z" />
<glyph unicode="+" d="M111 475v98h475v476h98v-476h475v-98h-475v-475h-98v475h-475z" />
<glyph unicode="," horiz-adv-x="634" d="M174 -317l139 469l93 -29l-170 -463z" />
<glyph unicode="-" horiz-adv-x="389" d="M0 608v92h389v-92h-389z" />
<glyph unicode="." horiz-adv-x="634" d="M233 63.5q0 34.5 25 59t59.5 24.5t59 -24.5t24.5 -59t-24.5 -59t-59 -24.5t-59.5 24.5t-25 59z" />
<glyph unicode="/" horiz-adv-x="1310" d="M72 -252l1095 1942l72 -37l-1092 -1944z" />
<glyph unicode="0" d="M74 782q0 100 21.5 206t66.5 209t109.5 185t158.5 132.5t204.5 50.5t205 -50.5t159 -132.5t109.5 -185t66.5 -208.5t21.5 -206.5q0 -127 -34 -261t-98.5 -258t-177 -203.5t-251.5 -79.5t-252 79.5t-177.5 203.5t-98 258t-33.5 261zM172 782q0 -111 26.5 -229.5t80 -229 t146.5 -181t210 -70.5t210 70.5t146 181t80 229.5t27 229q0 98 -27 212t-80 223.5t-146 182.5t-210 73t-210 -73t-146.5 -182.5t-80 -223.5t-26.5 -212z" />
<glyph unicode="1" d="M387 1452l47 92h295v-1544h-98v1452h-244z" />
<glyph unicode="2" d="M141 0l576 633q166 182 219 276q66 113 65 209q0 150 -107.5 252.5t-256.5 102.5q-160 0 -264 -104q-101 -100 -101 -249v-12h-98q6 188 96 293q68 76 167.5 120t199.5 44q193 0 328 -130t135 -323q0 -74 -23.5 -143.5t-76 -144t-86 -114.5t-105.5 -118l-449 -500h734 v-92h-953z" />
<glyph unicode="3" d="M186 379h99q12 -137 100 -222t227 -85q145 0 251 105.5t106 250.5q0 147 -101.5 238.5t-249.5 91.5v92q139 4 233.5 93t94.5 228q0 125 -90 213.5t-215 88.5q-133 0 -212 -80t-87 -213h-98q12 178 116.5 281.5t282.5 103.5q166 0 283.5 -116t117.5 -282q0 -119 -62 -215 t-169 -143q115 -43 184.5 -147.5t69.5 -227.5q0 -193 -130 -323.5t-323 -130.5q-178 0 -304 112.5t-124 286.5z" />
<glyph unicode="4" d="M25 293v12l919 1292h12v-1212h218v-92h-218v-293h-98v293h-833zM205 385h653v913h-12l-641 -901v-12z" />
<glyph unicode="5" d="M70 236l90 36q59 -92 159.5 -146t208.5 -54q195 0 326 130t131 324q0 182 -133 307t-317 125q-119 0 -236 -69l201 655h587v-92h-516l-129 -418q51 16 117 17q221 0 372.5 -153t151.5 -374q0 -236 -160.5 -390t-396.5 -154q-139 0 -260.5 68.5t-195.5 187.5z" />
<glyph unicode="6" d="M86 518q0 182 113 340l497 707l80 -60l-340 -481l4 -4q98 41 205 41q221 0 380 -161t159 -382q0 -203 -154 -371q-156 -168 -397 -167q-225 0 -386 156.5t-161 381.5zM184 520q0 -186 132.5 -317t318.5 -131q184 0 317 132t133 316.5t-133 316.5t-317 132 q-186 0 -318.5 -132.5t-132.5 -316.5z" />
<glyph unicode="7" d="M82 43l999 1409h-938v92h1121l-1106 -1560z" />
<glyph unicode="8" d="M186 403q0 281 252 402q-98 49 -157.5 145.5t-59.5 206.5q0 174 119 291t295 117t295 -117t119 -291q0 -111 -59.5 -207t-158.5 -145q252 -121 252 -402q0 -182 -132 -302.5t-316 -120.5t-316.5 120.5t-132.5 302.5zM285 413.5q0 -141.5 103.5 -241.5t246.5 -100 t246.5 100t103.5 241.5t-103.5 242t-246.5 100.5t-246.5 -100.5t-103.5 -242zM319 1159q0 -129 92.5 -220t223.5 -91q129 0 222 91t93 220t-93 221.5t-222 92.5t-222.5 -92.5t-93.5 -221.5z" />
<glyph unicode="9" d="M86 1028q0 223 163 380t388 157q231 0 389 -158t158 -389q0 -168 -113 -330l-498 -704l-79 59l342 481l-5 4q-100 -41 -206 -41q-221 0 -380 160t-159 381zM184 1026q0 -184 134.5 -315t318.5 -131t316 131t132 315t-132 315.5t-316 131.5t-318.5 -131.5t-134.5 -315.5z " />
<glyph unicode=":" horiz-adv-x="634" d="M233 63.5q0 34.5 25 59t59.5 24.5t59 -24.5t24.5 -59t-24.5 -59t-59 -24.5t-59.5 24.5t-25 59zM233 883q0 35 25 59.5t59.5 24.5t59 -24.5t24.5 -59.5t-24.5 -59.5t-59 -24.5t-59.5 24.5t-25 59.5z" />
<glyph unicode=";" horiz-adv-x="634" d="M174 -317l139 469l93 -29l-170 -463zM246 883q0 35 24.5 59.5t59.5 24.5t59.5 -24.5t24.5 -59.5t-24.5 -59.5t-59.5 -24.5t-59.5 24.5t-24.5 59.5z" />
<glyph unicode="&#x3c;" d="M111 471v109l1048 456v-94l-942 -418l942 -440v-94z" />
<glyph unicode="=" d="M111 301v98h1048v-98h-1048zM111 649v99h1048v-99h-1048z" />
<glyph unicode="&#x3e;" d="M111 -10v94l942 440l-942 418v94l1048 -456v-109z" />
<glyph unicode="?" horiz-adv-x="1005" d="M135 1235q0 143 108.5 236.5t258.5 93.5q164 0 266 -103.5t102 -265.5t-85 -243t-255 -124q-51 -12 -77.5 -20t-65.5 -26.5t-58.5 -40t-34.5 -57.5t-15 -83q0 -96 64.5 -157.5t164.5 -61.5t159.5 70.5t57.5 167.5h98q0 -9 1 -18q0 -129 -85 -218q-90 -94 -235 -94 q-135 0 -229.5 87t-94.5 218q0 133 77 206t216 107l98 28q33 9 79 31.5t67.5 49t38 71t16.5 103.5q0 117 -76.5 199t-195.5 82q-115 0 -192 -75q-75 -73 -75 -180q0 -71 11 -114h-94q-15 76 -15 131zM414 63.5q0 34.5 24.5 59t59 24.5t59.5 -24.5t25 -59t-25 -59 t-59.5 -24.5t-59 24.5t-24.5 59z" />
<glyph unicode="@" horiz-adv-x="1638" d="M82 778q0 326 227.5 556.5t540.5 230.5q297 0 501.5 -188.5t204.5 -473.5q0 -238 -152.5 -416t-324.5 -178q-55 0 -97 26.5t-56 74.5q-117 -100 -267 -101q-129 0 -200.5 85t-71.5 216q0 229 141.5 432t354.5 203q156 0 245 -137l31 96h90l-211 -663q-8 -27 -12 -43.5 t-5 -39t7 -33.5t27.5 -20.5t52.5 -9.5q125 0 243.5 173t118.5 343q0 246 -187 407t-429 161q-281 0 -483.5 -214t-202.5 -501q0 -283 207 -490.5t483 -207.5q176 0 325.5 71.5t233.5 206.5h115q-88 -166 -266.5 -265t-407.5 -99q-328 0 -552 233t-224 565zM473 623 q0 -96 58 -163q57 -65 153 -65h6q94 2 177 78t112 166l96 301q4 15 4 30q0 51 -47 111q-61 78 -166 78q-102 0 -195 -91t-145.5 -215t-52.5 -230z" />
<glyph unicode="A" horiz-adv-x="1312" d="M10 0l647 1595l646 -1595h-101l-207 508h-678l-206 -508h-101zM354 600h604l-301 746z" />
<glyph unicode="B" horiz-adv-x="1157" d="M166 0v1544h309q106 0 181 -17.5t139 -72.5q129 -113 129 -319q0 -215 -179 -316q143 -29 231.5 -135t88.5 -254q0 -197 -143 -319q-131 -111 -361 -111h-395zM264 844h170h34h34q6 0 29.5 1t32.5 2t28.5 4t31.5 7l27 10q16 6 30.5 14.5t29.5 18.5q115 82 114 248 q0 174 -127 254q-78 49 -264 49h-170v-608zM264 92h236q82 0 114.5 1t95 15.5t105.5 43.5q152 102 152 274q0 88 -42 164t-118 112q-98 49 -326 50h-217v-660z" />
<glyph unicode="C" horiz-adv-x="1513" d="M74 770q0 328 238.5 561.5t568.5 233.5q295 0 512 -201v-135q-90 109 -232.5 176.5t-286.5 67.5q-287 0 -494.5 -212t-207.5 -499q0 -274 207 -477q100 -96 231 -154.5t264 -58.5q135 0 285 66.5t234 168.5v-135q-231 -193 -514 -192q-324 0 -564.5 234t-240.5 556z" />
<glyph unicode="D" horiz-adv-x="1335" d="M166 0v1544h278q184 0 318.5 -42t255.5 -152q246 -229 246 -580q0 -338 -238 -565q-121 -117 -258 -161t-324 -44h-278zM264 92h178q330 0 519 187q205 205 204 491q0 309 -223 514q-104 94 -224 131t-276 37h-178v-1360z" />
<glyph unicode="E" horiz-adv-x="1038" d="M166 0v1544h737v-92h-639v-561h623v-92h-623v-707h639v-92h-737z" />
<glyph unicode="F" horiz-adv-x="909" d="M166 0v1544h622v-92h-524v-561h510v-92h-510v-799h-98z" />
<glyph unicode="G" horiz-adv-x="1687" d="M74 766q0 332 236.5 565.5t568.5 233.5q406 0 669 -361l-80 -63q-104 158 -257.5 245t-338.5 87q-281 0 -490.5 -211t-209.5 -490q0 -287 206 -493.5t494 -206.5q244 0 455 170q178 152 189 409h-553v92h651v-33q0 -141 -31 -252q-35 -124 -131 -229 q-109 -119 -265.5 -184t-320.5 -65q-322 0 -557 233.5t-235 552.5z" />
<glyph unicode="H" horiz-adv-x="1466" d="M166 0v1544h98v-655h938v655h98v-1544h-98v797h-938v-797h-98z" />
<glyph unicode="I" horiz-adv-x="430" d="M166 0v1544h98v-1544h-98z" />
<glyph unicode="J" horiz-adv-x="446" d="M-248 -156l74 56q27 -57 79 -94t111 -37q55 0 90 22.5t50.5 65.5t20.5 80.5t5 91.5v1515h99v-1515q0 -166 -58.5 -259.5t-214.5 -93.5q-84 0 -151.5 46t-104.5 122z" />
<glyph unicode="K" horiz-adv-x="1165" d="M166 0v1544h98v-721l733 721h131l-755 -743l803 -801h-129l-742 737l-41 -41v-696h-98z" />
<glyph unicode="L" horiz-adv-x="669" d="M166 0v1544h98v-1452h393v-92h-491z" />
<glyph unicode="M" horiz-adv-x="1837" d="M18 0l332 1595l568 -1405l569 1405l332 -1595h-95l-264 1278h-4l-538 -1329l-537 1329h-4l-264 -1278h-95z" />
<glyph unicode="N" horiz-adv-x="1726" d="M166 0v1565l1296 -1368v1347h99v-1595l-1297 1378v-1327h-98z" />
<glyph unicode="O" horiz-adv-x="1748" d="M74 772q0 326 236.5 559.5t563.5 233.5q326 0 563.5 -233.5t237.5 -559.5t-237.5 -559t-563 -233t-563 233t-237.5 559zM172 772q0 -287 207 -493.5t495 -206.5q287 0 495 207.5t208 492.5q0 287 -208 494t-495 207q-289 0 -495.5 -207t-206.5 -494z" />
<glyph unicode="P" horiz-adv-x="966" d="M166 0v1544h272q111 0 190 -17.5t144 -72.5q139 -119 139 -317q0 -86 -33.5 -170t-95.5 -136q-113 -98 -344 -98h-174v-733h-98zM264 825h178q176 0 271 84q100 92 100 232q0 164 -117 250q-80 61 -270 61h-162v-627z" />
<glyph unicode="Q" horiz-adv-x="1748" d="M74 772q0 328 236.5 560.5t566.5 232.5q326 0 562 -231.5t236 -555.5q0 -301 -225 -559l203 -219h-133l-140 164q-223 -184 -506 -184q-332 0 -566 231t-234 561zM172 772q0 -291 208 -495.5t501 -204.5q227 0 430 161l-385 400h139l313 -340q199 215 199 467 q0 293 -203 503t-497 210q-287 0 -496 -208t-209 -493z" />
<glyph unicode="R" horiz-adv-x="999" d="M166 0v1544h192q80 0 127 -3t112 -21.5t114 -53.5q156 -109 155 -331q0 -197 -122 -302q-117 -102 -305 -102h-15l506 -731h-113l-504 731h-49v-731h-98zM264 823h125q188 0 270 72q109 88 109 244q0 90 -42 166.5t-122 111.5q-74 35 -276 35h-64v-629z" />
<glyph unicode="S" horiz-adv-x="1114" d="M88 311l86 39q111 -279 373 -278q154 0 267.5 106.5t113.5 257.5q0 47 -19.5 89t-41 67.5t-70.5 58.5t-70.5 44.5t-81.5 39.5l-29 15l-278 147q-160 98 -160 277q0 172 110.5 281.5t284.5 109.5q117 0 219.5 -58.5t157.5 -158.5l-69 -58q-115 182 -314 183 q-123 0 -207 -86.5t-84 -208.5q0 -57 23 -102.5t74 -83.5t81.5 -54t100.5 -49l295 -154q176 -111 176 -307q0 -188 -145.5 -318t-337.5 -130q-158 0 -279 89.5t-176 241.5z" />
<glyph unicode="T" horiz-adv-x="921" d="M12 1452v92h897v-92h-399v-1452h-98v1452h-400z" />
<glyph unicode="U" horiz-adv-x="1351" d="M152 582v962h98v-934q0 -94 3 -145t21.5 -124t55.5 -120q53 -70 151.5 -109.5t194.5 -39.5t194.5 40t151.5 109q37 47 55.5 120t21.5 124t3 145v934h98v-962q0 -102 -3 -155.5t-27.5 -129.5t-73.5 -137q-76 -88 -187.5 -134t-232.5 -46t-232.5 46t-187.5 134 q-49 61 -73.5 137t-27.5 129.5t-3 155.5z" />
<glyph unicode="V" horiz-adv-x="1136" d="M10 1544h99l458 -1319h4l457 1319h98l-561 -1595z" />
<glyph unicode="W" horiz-adv-x="2263" d="M25 1544h98l434 -1327l578 1405l577 -1405l428 1327h98l-520 -1595l-590 1427l-587 -1427z" />
<glyph unicode="X" horiz-adv-x="1011" d="M25 0l421 788l-405 756h109l354 -663l354 663h109l-404 -756l424 -788h-106l-377 698l-373 -698h-106z" />
<glyph unicode="Y" horiz-adv-x="1144" d="M8 1544h109l454 -782l455 782h109l-514 -885v-659h-99v659z" />
<glyph unicode="Z" horiz-adv-x="1163" d="M25 0l942 1452h-852v92h1024l-942 -1452h915v-92h-1087z" />
<glyph unicode="[" horiz-adv-x="614" d="M133 -416v1960h348v-104h-250v-1751h250v-105h-348z" />
<glyph unicode="\" horiz-adv-x="1310" d="M72 1653l71 37l1096 -1651l-76 -39z" />
<glyph unicode="]" horiz-adv-x="614" d="M133 -311h250v1751h-250v104h348v-1960h-348v105z" />
<glyph unicode="^" d="M111 616l471 928h106l471 -928h-94l-430 836l-428 -836h-96z" />
<glyph unicode="_" horiz-adv-x="1024" d="M0 -154h1024v-102h-1024v102z" />
<glyph unicode="`" horiz-adv-x="641" d="M154 1423l125 39l206 -301l-77 -35z" />
<glyph unicode="a" horiz-adv-x="1146" d="M66 479q0 211 126.5 349.5t335.5 138.5q111 0 208.5 -48.5t156.5 -136.5h4v164h92v-946h-92v170h-4q-51 -88 -151.5 -139t-209.5 -51q-211 0 -338.5 143t-127.5 356zM158 479q0 -170 103.5 -291.5t268.5 -121.5q174 0 273.5 121.5t99.5 301.5q0 168 -104.5 280 t-274.5 112q-158 0 -262 -121t-104 -281z" />
<glyph unicode="b" horiz-adv-x="1146" d="M158 0v1690h92v-908h4q59 88 156.5 136.5t207.5 48.5q209 0 336 -138.5t127 -349.5q0 -213 -128 -356t-339 -143q-109 0 -209 51t-151 139h-4v-170h-92zM244 477q0 -172 101 -291.5t271 -119.5q168 0 270.5 121.5t102.5 291.5q0 162 -104.5 282t-263.5 120 q-174 0 -275.5 -115t-101.5 -289z" />
<glyph unicode="c" horiz-adv-x="976" d="M66 475q0 207 140 349.5t347 142.5q193 0 330 -117v-123q-141 154 -334 154q-164 0 -277.5 -121t-113.5 -285t112.5 -286.5t276.5 -122.5q209 0 348 170v-125q-150 -131 -344 -131q-209 0 -347 143t-138 352z" />
<glyph unicode="d" horiz-adv-x="1146" d="M66 479q0 211 126.5 349.5t335.5 138.5q111 0 208.5 -48.5t156.5 -136.5h4v908h92v-1690h-92v170h-4q-51 -88 -151.5 -139t-209.5 -51q-211 0 -338.5 143t-127.5 356zM158 479q0 -170 103.5 -291.5t268.5 -121.5q174 0 273.5 121.5t99.5 301.5q0 168 -104.5 280 t-274.5 112q-158 0 -262 -121t-104 -281z" />
<glyph unicode="e" horiz-adv-x="1044" d="M66 475q0 205 128 348.5t330 143.5q209 0 333 -145.5t122 -356.5h-821v-13q0 -169 103 -276q108 -111 276 -110q106 0 193 58t140 157l78 -45q-135 -256 -424 -256q-205 0 -331.5 144t-126.5 351zM158 551h729q-18 135 -118.5 232.5t-242.5 97.5q-143 0 -249.5 -97.5 t-118.5 -232.5z" />
<glyph unicode="f" horiz-adv-x="491" d="M53 860v86h105v424q0 166 37 232q66 115 211 114q45 0 81 -14v-84q-74 12 -75 12q-57 0 -92 -24.5t-49.5 -72.5t-17.5 -84t-3 -97v-406h237v-86h-237v-860h-92v860h-105z" />
<glyph unicode="g" horiz-adv-x="1161" d="M66 -133h92q8 -143 113.5 -231.5t252.5 -88.5q205 0 303 142q84 123 84 358v117h-4q-63 -84 -162.5 -134t-205.5 -50q-201 0 -330 145t-129 350q0 207 133 349.5t338 142.5q219 0 356 -185h4v164h93v-901q0 -90 -4.5 -144.5t-26 -126t-64.5 -130.5q-133 -182 -377 -183 q-193 0 -324.5 109t-141.5 297zM172 479q0 -170 103.5 -291.5t269.5 -121.5q174 0 273.5 121.5t99.5 301.5q0 168 -104.5 280t-274.5 112q-158 0 -262.5 -121t-104.5 -281z" />
<glyph unicode="h" horiz-adv-x="1003" d="M158 0v1690h92v-891h4q41 80 114.5 124t166.5 44q174 0 242.5 -99.5t68.5 -296.5v-571h-92v571q0 74 -7.5 122t-29 95.5t-69.5 70t-122 22.5q-276 0 -276 -414v-467h-92z" />
<glyph unicode="i" horiz-adv-x="479" d="M156 1261.5q0 34.5 24.5 59.5t59 25t59.5 -25t25 -59.5t-25 -59t-59.5 -24.5t-59 24.5t-24.5 59zM193 0v946h92v-946h-92z" />
<glyph unicode="j" horiz-adv-x="479" d="M156 1261.5q0 34.5 24.5 59.5t59 25t59.5 -25t25 -59.5t-25 -59t-59.5 -24.5t-59 24.5t-24.5 59zM193 -553v1499h92v-1499h-92z" />
<glyph unicode="k" horiz-adv-x="874" d="M158 0v1690h92v-1145l389 401h119l-398 -409l531 -537h-121l-469 473l-51 -53v-420h-92z" />
<glyph unicode="l" horiz-adv-x="407" d="M158 0v1690h92v-1690h-92z" />
<glyph unicode="m" horiz-adv-x="1484" d="M158 0v946h92v-119h4q33 66 97.5 103t140.5 37q190 0 266 -172q37 84 110.5 128t165.5 44q168 0 230.5 -97.5t62.5 -275.5v-594h-92v606q0 131 -40 203t-163 72q-244 0 -244 -336v-545h-92v584q0 135 -43 216t-168 81q-236 0 -235 -361v-520h-92z" />
<glyph unicode="n" horiz-adv-x="1003" d="M158 0v946h92v-147h4q41 80 114.5 124t166.5 44q174 0 242.5 -99.5t68.5 -296.5v-571h-92v571q0 74 -7.5 122t-29 95.5t-69.5 70t-122 22.5q-276 0 -276 -414v-467h-92z" />
<glyph unicode="o" horiz-adv-x="1120" d="M66 471q0 205 143 350.5t348 145.5q209 0 353.5 -142.5t144.5 -351.5t-144.5 -351t-353.5 -142q-203 0 -347 144t-144 347zM158 471q0 -164 113.5 -284.5t279.5 -120.5q174 0 293 116.5t119 288.5q0 174 -118 292t-294 118q-166 0 -279.5 -121t-113.5 -289z" />
<glyph unicode="p" horiz-adv-x="1146" d="M158 -553v1499h92v-170h4q51 88 151.5 139.5t208.5 51.5q211 0 339 -144.5t128 -357.5q0 -211 -127 -348t-336 -137q-113 0 -210 48t-154 136h-4v-717h-92zM244 453q0 -168 104.5 -277.5t272.5 -109.5q162 0 265 116.5t103 280.5q0 170 -102.5 294t-270.5 124 q-174 0 -273 -124t-99 -304z" />
<glyph unicode="q" horiz-adv-x="1146" d="M66 463q0 215 128 359.5t338 144.5q109 0 209.5 -51.5t151.5 -139.5h4v170h92v-1499h-92v717h-4q-57 -88 -154.5 -136t-210.5 -48q-209 0 -335.5 136t-126.5 347zM158 453q0 -168 104.5 -277.5t272.5 -109.5q162 0 265 116.5t103 280.5q0 170 -102.5 294t-270.5 124 q-174 0 -273 -124t-99 -304z" />
<glyph unicode="r" horiz-adv-x="569" d="M158 0v946h92v-123h4q61 143 205 144q49 0 100 -23l-49 -82q-35 18 -66 19q-41 0 -72.5 -14.5t-52 -34t-35 -55.5t-20.5 -62.5t-10 -73.5t-4 -69v-66v-23v-483h-92z" />
<glyph unicode="s" horiz-adv-x="768" d="M57 229l90 29q59 -193 236 -192q88 0 150.5 61t62.5 152q0 78 -47 116.5t-137 69.5q-66 25 -101 40t-83 47t-70.5 75t-22.5 100q0 104 76 172t182 68q74 0 142.5 -43t99.5 -109l-80 -41q-49 106 -166 107q-61 0 -111.5 -44t-50.5 -104q0 -61 47.5 -100t115 -62.5t136 -51 t115.5 -89t47 -156.5q0 -129 -88 -211.5t-217 -82.5q-119 0 -208 67t-118 182z" />
<glyph unicode="t" horiz-adv-x="428" d="M63 860v86h105v338h92v-338h166v-86h-166v-860h-92v860h-105z" />
<glyph unicode="u" horiz-adv-x="966" d="M143 379v567h93v-534q0 -80 7 -133.5t30.5 -106.5t75.5 -79.5t134 -26.5t134.5 26.5t76 79.5t30.5 106.5t7 133.5v534h92v-567q0 -68 -1 -99.5t-15 -84t-41 -89.5q-96 -127 -282.5 -126.5t-282.5 126.5q-27 37 -41.5 89.5t-15.5 84t-1 99.5z" />
<glyph unicode="v" horiz-adv-x="886" d="M10 946h94l342 -780l336 780h95l-433 -997z" />
<glyph unicode="w" horiz-adv-x="1540" d="M10 946h94l334 -776l334 827l336 -827l328 776h94l-428 -997l-334 817l-332 -817z" />
<glyph unicode="x" horiz-adv-x="907" d="M8 0l385 500l-352 446h111l301 -383l303 383h110l-352 -446l385 -500h-108l-338 434l-336 -434h-109z" />
<glyph unicode="y" horiz-adv-x="942" d="M-14 946h96l403 -856l363 856h94l-635 -1499h-94l227 537z" />
<glyph unicode="z" horiz-adv-x="983" d="M6 0l774 860h-649v86h842l-772 -860h768v-86h-963z" />
<glyph unicode="{" horiz-adv-x="614" d="M84 522v90q80 55 114.5 104.5t34.5 131.5v360q0 182 62.5 257t234.5 79v-94q-199 0 -198 -164v-381q0 -145 -34 -212.5t-116 -121.5v-10q80 -51 115 -122.5t35 -221.5v-379q0 -164 198 -164v-90q-172 6 -234.5 80t-62.5 254v361q0 84 -35.5 135t-113.5 108z" />
<glyph unicode="|" horiz-adv-x="655" d="M279 -438v2048h98v-2048h-98z" />
<glyph unicode="}" horiz-adv-x="614" d="M84 -326q199 0 199 164v379q0 150 34.5 221.5t114.5 122.5v10q-82 53 -115.5 121t-33.5 213v381q0 164 -199 164v94q172 -4 234.5 -78.5t62.5 -257.5v-360q0 -82 35 -131t114 -105v-90q-78 -57 -113.5 -108.5t-35.5 -134.5v-361q0 -180 -62.5 -254t-234.5 -80v90z" />
<glyph unicode="~" d="M111 432q2 4 26 34l31 37l30 34q24 27 35 35l37 27q25 17 44.5 24.5t45 13.5t52.5 6q80 0 239 -74q20 -8 59 -26l59 -29q22 -10 48.5 -18.5t44.5 -8.5q109 0 199 164l98 -47q-141 -223 -299 -223q-76 0 -223 78q-152 78 -225 78q-63 0 -109.5 -39t-95.5 -113z" />
<glyph unicode="&#xa1;" horiz-adv-x="655" d="M244 883q0 35 24.5 59.5t59 24.5t59.5 -24.5t25 -59.5t-25 -59.5t-59.5 -24.5t-59 24.5t-24.5 59.5zM279 -594v1251h98v-1251h-98z" />
<glyph unicode="&#xa2;" d="M219 776q0 197 119 340.5t309 163.5v240h92v-238q164 -6 297 -119v-123q-129 143 -297 156v-817q184 16 305 170h5v-125q-143 -123 -310 -131v-262h-92v264q-182 18 -305 157.5t-123 323.5zM311 786.5q0 -149.5 95.5 -267.5t240.5 -138v811q-145 -20 -240.5 -138 t-95.5 -267.5z" />
<glyph unicode="&#xa3;" d="M131 59q51 59 126 98q71 36 141 36h8q131 113 131 243l-7 60h-254v92h230l-166 282q-57 90 -84 157t-27 151q0 166 123 276.5t289 110.5q170 0 284 -120q110 -116 109 -276v-12h-98q2 137 -84 226.5t-223 89.5q-123 0 -212 -91.5t-89 -214.5q0 -92 94 -239q8 -14 48 -79 l56 -91q16 -27 43 -77t43 -93h279v-92h-260l4 -68q0 -141 -117 -258l21 -6q14 -4 86.5 -32t126 -44t86.5 -16q129 0 217 168l84 -50q-49 -88 -125 -149t-164 -61q-76 0 -232 61q-150 59 -208 59q-102 0 -224 -120z" />
<glyph unicode="&#xa4;" d="M113 614.5q0 155.5 108 323.5l-82 82l74 74l86 -86q164 119 336 118.5t336 -118.5l86 86l73 -74l-81 -82q109 -168 108.5 -323.5t-108.5 -323.5l81 -82l-73 -74l-86 86q-164 -119 -336 -119t-336 119l-86 -86l-74 74l82 82q-108 168 -108 323.5zM339 324 q124 -123 296 -123t296 122.5t128 290.5v6q0 170 -121 286q-123 118 -303 122q-180 -4 -303 -122q-121 -116 -121 -286q0 -169 128 -296z" />
<glyph unicode="&#xa5;" d="M72 1544h118l445 -772l444 772h119l-371 -639h275v-92h-328l-90 -154h418v-92h-418v-567h-98v567h-418v92h418l-88 154h-330v92h274z" />
<glyph unicode="&#xa6;" horiz-adv-x="655" d="M279 -182v512h98v-512h-98zM279 842v512h98v-512h-98z" />
<glyph unicode="&#xa7;" d="M260 582q0 121 60.5 214t171.5 138q-102 49 -149.5 121.5t-47.5 185.5q0 154 101.5 239t256.5 85q182 0 255 -90.5t87 -280.5h-98q-4 279 -254 279q-111 0 -180.5 -67t-69.5 -177q0 -29 5 -53.5t11.5 -43t23 -37t25.5 -29.5t33.5 -25.5t35 -21.5t42 -18.5l42 -15.5 t47 -16.5t44.5 -14.5q70 -23 114 -45t93 -63t74 -107.5t25 -156.5q0 -227 -232 -342q219 -84 219 -318q0 -156 -102 -236.5t-262 -80.5q-180 0 -260 88q-76 84 -76 247v17v20h98v-26q2 -129 57.5 -191.5t182.5 -62.5q117 0 190.5 63.5t73.5 176.5q0 63 -23.5 108t-78 78 t-88 47t-109.5 39q-166 55 -252 135t-86 238zM358 587.5q0 -110.5 82 -190.5t195 -80q111 0 192.5 80t81.5 190.5t-82 192.5t-192 82q-113 0 -195 -82t-82 -192.5z" />
<glyph unicode="&#xa8;" horiz-adv-x="862" d="M158 1298.5q0 32.5 23.5 57t58 24.5t58.5 -24.5t24 -57t-24 -57t-58.5 -24.5t-58 24.5t-23.5 57zM541 1298.5q0 32.5 24.5 57t57 24.5t57.5 -24.5t25 -57t-25 -57t-57.5 -24.5t-57 24.5t-24.5 57z" />
<glyph unicode="&#xa9;" horiz-adv-x="1638" d="M27 774q0 328 232.5 559.5t561.5 231.5q328 0 559.5 -231.5t231.5 -559.5q0 -330 -231.5 -562t-559.5 -232q-330 0 -562 233t-232 561zM125 774q0 -291 202.5 -493.5t493.5 -202.5q289 0 490.5 202.5t201.5 493.5q0 289 -201.5 490.5t-490.5 201.5q-291 0 -493.5 -201.5 t-202.5 -490.5zM418 780q0 201 116.5 328t315.5 127q145 0 248.5 -80t124.5 -219h-99q-16 90 -95 145.5t-177 55.5q-154 0 -245 -101.5t-91 -253.5q0 -147 95.5 -253.5t244.5 -106.5q98 0 177 56.5t91 152.5h99q-14 -139 -120 -223t-247 -84q-195 0 -316.5 129.5 t-121.5 326.5z" />
<glyph unicode="&#xaa;" horiz-adv-x="688" d="M45 1272q0 127 82 210t219 83q156 0 236 -111h4v98h59v-567h-59v102h-4q-33 -53 -98.5 -83.5t-135.5 -30.5q-137 0 -220 86t-83 213zM115 1270q0 -92 61.5 -160t161.5 -68q109 0 173 68t64 166q0 92 -68.5 155.5t-172.5 63.5q-94 0 -156.5 -67.5t-62.5 -157.5z" />
<glyph unicode="&#xab;" horiz-adv-x="813" d="M72 655l299 346l59 -55l-248 -291l248 -290l-59 -56zM317 655l299 346l60 -55l-248 -291l248 -290l-60 -56z" />
<glyph unicode="&#xac;" d="M111 649v99h1048v-545h-98v446h-950z" />
<glyph unicode="&#xad;" horiz-adv-x="389" d="M0 608v92h389v-92h-389z" />
<glyph unicode="&#xae;" horiz-adv-x="1638" d="M27 774q0 328 232.5 559.5t561.5 231.5q328 0 559.5 -231.5t231.5 -559.5q0 -330 -231.5 -562t-559.5 -232q-330 0 -562 233t-232 561zM125 774q0 -291 202.5 -493.5t493.5 -202.5q289 0 490.5 202.5t201.5 493.5q0 289 -201.5 490.5t-490.5 201.5q-291 0 -493.5 -201.5 t-202.5 -490.5zM532 324v866h379q166 0 237 -58.5t71 -170.5q0 -229 -273 -238l262 -399h-127l-247 399h-203v-399h-99zM631 821h170q12 0 43 -1q15 -1 27 -0.5t20 0.5q16 1 46 2t48.5 5t42 10.5t37.5 16.5t28.5 25.5t20.5 36t6 47.5q0 129 -233 129h-256v-271z" />
<glyph unicode="&#xaf;" horiz-adv-x="933" d="M154 1288v92h624v-92h-624z" />
<glyph unicode="&#xb0;" horiz-adv-x="819" d="M102 1263q0 123 89 212q91 90 218.5 90t217.5 -90.5t90 -217.5t-90 -217t-217 -90t-217.5 90.5t-90.5 222.5zM188 1257q0 -94 63.5 -157.5t158.5 -63.5q92 0 156.5 63.5t64.5 157.5q0 92 -64.5 157t-158.5 65q-92 0 -156 -65t-64 -157z" />
<glyph unicode="&#xb1;" d="M111 0v98h1048v-98h-1048zM111 557v98h475v394h98v-394h475v-98h-475v-393h-98v393h-475z" />
<glyph unicode="&#xb2;" horiz-adv-x="761" d="M70 627l372 379q55 55 84 88.5t63 94t34 109.5q0 88 -67 142.5t-165 54.5q-104 0 -167.5 -55.5t-63.5 -147.5h-70q4 111 64 174q92 98 237 99q125 0 213 -78t88 -193q0 -135 -180 -315l-279 -283h455v-69h-618z" />
<glyph unicode="&#xb3;" horiz-adv-x="761" d="M94 854h70q10 -80 63.5 -125t143.5 -45q96 0 161.5 56.5t65.5 142.5q0 88 -63.5 140t-159.5 52v70q90 0 149.5 50t59.5 134q0 74 -55.5 120t-139.5 46q-178 0 -188 -160h-70q10 106 77.5 168t182.5 62q109 0 185.5 -70t76.5 -168q0 -72 -41 -129t-110 -86q74 -27 120 -89 t46 -136q0 -115 -85 -194t-210 -79q-115 0 -197 68t-82 172z" />
<glyph unicode="&#xb4;" horiz-adv-x="641" d="M154 1161l206 301l125 -39l-254 -297z" />
<glyph unicode="&#xb5;" horiz-adv-x="966" d="M143 -553v1499h93v-467q0 -74 10 -138.5t34.5 -131t77 -105t125.5 -38.5q82 0 134.5 26.5t76 79.5t30.5 106.5t7 133.5v534h92v-567q0 -68 -1 -99.5t-15 -84t-41 -89.5q-96 -127 -283 -126q-70 0 -143.5 45t-99.5 122h-4v-700h-93z" />
<glyph unicode="&#xb6;" d="M225 1147q0 397 416 397h403v-92h-81v-1817h-99v1817h-188v-1817h-98v1123h-6q-150 0 -247 112q-100 115 -100 277z" />
<glyph unicode="&#xb7;" horiz-adv-x="634" d="M233 524q0 35 25 59.5t59.5 24.5t59 -24.5t24.5 -59.5t-24.5 -59.5t-59 -24.5t-59.5 24.5t-25 59.5z" />
<glyph unicode="&#xb8;" horiz-adv-x="612" d="M154 -336l190 295l115 -45l-228 -289z" />
<glyph unicode="&#xb9;" horiz-adv-x="761" d="M274 1475l31 69h195v-917h-70v848h-156z" />
<glyph unicode="&#xba;" horiz-adv-x="671" d="M14 1268q0 123 93.5 210t226.5 87q135 0 229 -85t94 -210q0 -127 -94 -212t-229 -85q-131 0 -225.5 87t-94.5 208zM94 1266q0 -90 68.5 -157t167.5 -67q102 0 175 64.5t73 159.5q0 96 -72 162.5t-176 66.5q-98 0 -167 -68.5t-69 -160.5z" />
<glyph unicode="&#xbb;" horiz-adv-x="813" d="M137 365l248 290l-248 291l60 55l299 -346l-299 -346zM383 365l248 290l-248 291l59 55l299 -346l-299 -346z" />
<glyph unicode="&#xbc;" horiz-adv-x="1904" d="M205 1475l31 69h194v-917h-70v848h-155zM414 2l915 1579l66 -37l-916 -1579zM965 168v8l587 782h13v-720h135v-70h-135v-168h-70v168h-530zM1104 238h391v514h-10l-381 -506v-8z" />
<glyph unicode="&#xbd;" horiz-adv-x="1904" d="M205 1475l31 69h194v-917h-70v848h-155zM324 2l915 1579l66 -37l-916 -1579zM1077 0l373 379q55 55 84 89t62.5 94.5t33.5 109.5q0 88 -66.5 142t-164.5 54q-104 0 -168 -55t-64 -147h-69q4 111 63 174q92 98 238 98q125 0 213 -78t88 -192q0 -135 -180 -316l-279 -282 h455v-70h-619z" />
<glyph unicode="&#xbe;" horiz-adv-x="1904" d="M123 854h70q10 -80 63 -125t143 -45q96 0 162 56.5t66 142.5q0 88 -63.5 140t-160.5 52v70q90 0 149.5 50t59.5 134q0 74 -55 120t-139 46q-178 0 -189 -160h-69q10 106 77.5 168t182.5 62q109 0 185.5 -70t76.5 -168q0 -72 -41 -129t-111 -86q74 -27 120 -89t46 -136 q0 -115 -85 -194t-210 -79q-115 0 -196.5 68t-81.5 172zM522 2l916 1579l65 -37l-915 -1579zM1047 168v8l587 782h13v-720h135v-70h-135v-168h-70v168h-530zM1186 238h391v514h-10l-381 -506v-8z" />
<glyph unicode="&#xbf;" horiz-adv-x="1005" d="M135 -250q0 162 85 243t255 124q51 12 78 20t65.5 26.5t58 40t35 57.5t15.5 83q0 96 -64.5 157.5t-165 61.5t-159.5 -70.5t-57 -166.5h-99v17q0 129 84 218q90 94 236 94q135 0 229 -87t94 -218q0 -133 -76.5 -205.5t-216.5 -107.5l-98 -28q-33 -9 -79 -31.5t-67.5 -49 t-38 -70.5t-16.5 -104q0 -117 77 -198.5t196 -81.5q115 0 191 74q75 73 75 180q0 71 -10 114h94q14 -76 14 -131q0 -143 -108.5 -236t-257.5 -93q-164 0 -266.5 103t-102.5 265zM424 882.5q0 34.5 24.5 59.5t59.5 25t59.5 -24.5t24.5 -59.5t-24.5 -59.5t-59.5 -24.5 t-59.5 24.5t-24.5 59z" />
<glyph unicode="&#xc0;" horiz-adv-x="1312" d="M10 0l647 1595l646 -1595h-101l-207 508h-678l-206 -508h-101zM354 600h604l-301 746zM489 1950l125 39l207 -301l-78 -35z" />
<glyph unicode="&#xc1;" horiz-adv-x="1312" d="M10 0l647 1595l646 -1595h-101l-207 508h-678l-206 -508h-101zM354 600h604l-301 746zM489 1688l207 301l125 -39l-254 -297z" />
<glyph unicode="&#xc2;" horiz-adv-x="1312" d="M10 0l647 1595l646 -1595h-101l-207 508h-678l-206 -508h-101zM354 600h604l-301 746zM375 1731l282 217l283 -217l-78 -60l-205 158l-208 -158z" />
<glyph unicode="&#xc3;" horiz-adv-x="1312" d="M10 0l647 1595l646 -1595h-101l-207 508h-678l-206 -508h-101zM354 600h604l-301 746zM360 1772q23 55 65 93t95 38q49 0 144 -39q104 -41 129 -41q70 0 98 84l59 -45q-14 -55 -61 -94t-105 -39q-35 0 -133 40q-94 41 -139 41q-61 0 -90 -84z" />
<glyph unicode="&#xc4;" horiz-adv-x="1312" d="M10 0l647 1595l646 -1595h-101l-207 508h-678l-206 -508h-101zM354 600h604l-301 746zM383 1825q0 35 23.5 58.5t58.5 23.5t58.5 -23.5t23.5 -58.5t-23.5 -58.5t-58.5 -23.5t-58.5 23.5t-23.5 58.5zM766 1825q0 35 24.5 58.5t57.5 23.5t57.5 -23.5t24.5 -58.5 t-24.5 -58.5t-57.5 -23.5t-57.5 23.5t-24.5 58.5z" />
<glyph unicode="&#xc5;" horiz-adv-x="1312" d="M10 0l647 1595l646 -1595h-101l-207 508h-678l-206 -508h-101zM354 600h604l-301 746zM479 1810.5q0 73.5 52.5 126t126 52.5t126 -52.5t52.5 -126t-52.5 -126t-126 -52.5t-126 52.5t-52.5 126zM561 1810q0 -41 28.5 -68.5t67.5 -27.5t68 27.5t29 68.5t-29 69t-68 28 t-67.5 -28t-28.5 -69z" />
<glyph unicode="&#xc6;" horiz-adv-x="1929" d="M10 0l623 1544h674l34 -92h-636l229 -561h620l39 -92h-620l287 -707h638l37 -92h-747l-205 508h-661l-201 -508h-111zM360 600h584l-295 727z" />
<glyph unicode="&#xc7;" horiz-adv-x="1513" d="M74 770q0 328 238.5 561.5t568.5 233.5q295 0 512 -201v-135q-90 109 -232.5 176.5t-286.5 67.5q-287 0 -494.5 -212t-207.5 -499q0 -274 207 -477q100 -96 231 -154.5t264 -58.5q135 0 285 66.5t234 168.5v-135q-231 -193 -514 -192q-324 0 -564.5 234t-240.5 556z M604 -336l191 295l114 -45l-227 -289z" />
<glyph unicode="&#xc8;" horiz-adv-x="1038" d="M166 0v1544h737v-92h-639v-561h623v-92h-623v-707h639v-92h-737zM352 1950l125 39l207 -301l-78 -35z" />
<glyph unicode="&#xc9;" horiz-adv-x="1038" d="M166 0v1544h737v-92h-639v-561h623v-92h-623v-707h639v-92h-737zM393 1688l207 301l125 -39l-254 -297z" />
<glyph unicode="&#xca;" horiz-adv-x="1038" d="M166 0v1544h737v-92h-639v-561h623v-92h-623v-707h639v-92h-737zM238 1731l282 217l283 -217l-78 -60l-205 158l-209 -158z" />
<glyph unicode="&#xcb;" horiz-adv-x="1038" d="M166 0v1544h737v-92h-639v-561h623v-92h-623v-707h639v-92h-737zM246 1825q0 35 24.5 58.5t57 23.5t57.5 -23.5t25 -58.5t-25 -58.5t-57.5 -23.5t-57 23.5t-24.5 58.5zM629 1825q0 35 23.5 58.5t58 23.5t58.5 -23.5t24 -58.5t-24 -58.5t-58.5 -23.5t-58 23.5t-23.5 58.5z " />
<glyph unicode="&#xcc;" horiz-adv-x="430" d="M49 1950l125 39l207 -301l-78 -35zM166 0v1544h98v-1544h-98z" />
<glyph unicode="&#xcd;" horiz-adv-x="430" d="M49 1688l207 301l125 -39l-254 -297zM166 0v1544h98v-1544h-98z" />
<glyph unicode="&#xce;" horiz-adv-x="430" d="M-68 1731l283 217l283 -217l-78 -60l-205 158l-209 -158zM166 0v1544h98v-1544h-98z" />
<glyph unicode="&#xcf;" horiz-adv-x="430" d="M-57 1825q0 35 24.5 58.5t57 23.5t57 -23.5t24.5 -58.5t-24.5 -58.5t-57 -23.5t-57 23.5t-24.5 58.5zM166 0v1544h98v-1544h-98zM326 1825q0 35 23.5 58.5t58 23.5t58 -23.5t23.5 -58.5t-23.5 -58.5t-58 -23.5t-58 23.5t-23.5 58.5z" />
<glyph unicode="&#xd0;" horiz-adv-x="1335" d="M0 797v92h166v655h278q184 0 318.5 -42t255.5 -152q246 -229 246 -580q0 -338 -238 -565q-121 -117 -258 -161t-324 -44h-278v797h-166zM264 1452v-563h354v-92h-354v-705h178q330 0 519 187q205 205 204 491q0 309 -223 514q-104 94 -224 131t-276 37h-178z" />
<glyph unicode="&#xd1;" horiz-adv-x="1726" d="M166 0v1565l1296 -1368v1347h99v-1595l-1297 1378v-1327h-98zM567 1772q23 55 65 93t95 38q49 0 143 -39q104 -41 129 -41q70 0 99 84l59 -45q-14 -55 -61 -94t-105 -39q-35 0 -133 40q-94 41 -139 41q-61 0 -90 -84z" />
<glyph unicode="&#xd2;" horiz-adv-x="1748" d="M74 772q0 326 236.5 559.5t563.5 233.5q326 0 563.5 -233.5t237.5 -559.5t-237.5 -559t-563 -233t-563 233t-237.5 559zM172 772q0 -287 207 -493.5t495 -206.5q287 0 495 207.5t208 492.5q0 287 -208 494t-495 207q-289 0 -495.5 -207t-206.5 -494zM709 1950l125 39 l206 -301l-77 -35z" />
<glyph unicode="&#xd3;" horiz-adv-x="1748" d="M74 772q0 326 236.5 559.5t563.5 233.5q326 0 563.5 -233.5t237.5 -559.5t-237.5 -559t-563 -233t-563 233t-237.5 559zM172 772q0 -287 207 -493.5t495 -206.5q287 0 495 207.5t208 492.5q0 287 -208 494t-495 207q-289 0 -495.5 -207t-206.5 -494zM709 1688l206 301 l125 -39l-254 -297z" />
<glyph unicode="&#xd4;" horiz-adv-x="1748" d="M74 772q0 326 236.5 559.5t563.5 233.5q326 0 563.5 -233.5t237.5 -559.5t-237.5 -559t-563 -233t-563 233t-237.5 559zM172 772q0 -287 207 -493.5t495 -206.5q287 0 495 207.5t208 492.5q0 287 -208 494t-495 207q-289 0 -495.5 -207t-206.5 -494zM592 1731l282 217 l283 -217l-78 -60l-205 158l-208 -158z" />
<glyph unicode="&#xd5;" horiz-adv-x="1748" d="M74 772q0 326 236.5 559.5t563.5 233.5q326 0 563.5 -233.5t237.5 -559.5t-237.5 -559t-563 -233t-563 233t-237.5 559zM172 772q0 -287 207 -493.5t495 -206.5q287 0 495 207.5t208 492.5q0 287 -208 494t-495 207q-289 0 -495.5 -207t-206.5 -494zM580 1772 q23 55 64.5 93t94.5 38q49 0 144 -39q104 -41 129 -41q70 0 98 84l59 -45q-14 -55 -61 -94t-104 -39q-35 0 -134 40q-94 41 -139 41q-61 0 -90 -84z" />
<glyph unicode="&#xd6;" horiz-adv-x="1748" d="M74 772q0 326 236.5 559.5t563.5 233.5q326 0 563.5 -233.5t237.5 -559.5t-237.5 -559t-563 -233t-563 233t-237.5 559zM172 772q0 -287 207 -493.5t495 -206.5q287 0 495 207.5t208 492.5q0 287 -208 494t-495 207q-289 0 -495.5 -207t-206.5 -494zM602 1825 q0 35 24.5 58.5t57.5 23.5t57.5 -23.5t24.5 -58.5t-24.5 -58.5t-57.5 -23.5t-57.5 23.5t-24.5 58.5zM985 1825q0 35 23.5 58.5t58.5 23.5t58.5 -23.5t23.5 -58.5t-23.5 -58.5t-58.5 -23.5t-58.5 23.5t-23.5 58.5z" />
<glyph unicode="&#xd7;" d="M111 66l460 458l-460 455l61 70l463 -463l463 463l61 -70l-459 -455l459 -458l-61 -66l-463 461l-461 -461z" />
<glyph unicode="&#xd8;" horiz-adv-x="1748" d="M74 772q0 326 236.5 559.5t563.5 233.5q299 0 529 -203l186 186l60 -53l-189 -188q215 -227 215 -535q0 -326 -237.5 -559t-563.5 -233q-309 0 -532 206l-186 -186l-56 59l185 185q-211 227 -211 528zM172 772q0 -264 178 -463l985 985q-199 178 -461 179 q-289 0 -495.5 -207t-206.5 -494zM408 252q203 -180 466 -180q287 0 495 207.5t208 492.5q0 270 -184 467z" />
<glyph unicode="&#xd9;" horiz-adv-x="1351" d="M152 582v962h98v-934q0 -94 3 -145t21.5 -124t55.5 -120q53 -70 151.5 -109.5t194.5 -39.5t194.5 40t151.5 109q37 47 55.5 120t21.5 124t3 145v934h98v-962q0 -102 -3 -155.5t-27.5 -129.5t-73.5 -137q-76 -88 -187.5 -134t-232.5 -46t-232.5 46t-187.5 134 q-49 61 -73.5 137t-27.5 129.5t-3 155.5zM479 1950l125 39l207 -301l-78 -35z" />
<glyph unicode="&#xda;" horiz-adv-x="1351" d="M152 582v962h98v-934q0 -94 3 -145t21.5 -124t55.5 -120q53 -70 151.5 -109.5t194.5 -39.5t194.5 40t151.5 109q37 47 55.5 120t21.5 124t3 145v934h98v-962q0 -102 -3 -155.5t-27.5 -129.5t-73.5 -137q-76 -88 -187.5 -134t-232.5 -46t-232.5 46t-187.5 134 q-49 61 -73.5 137t-27.5 129.5t-3 155.5zM541 1688l207 301l124 -39l-254 -297z" />
<glyph unicode="&#xdb;" horiz-adv-x="1351" d="M152 582v962h98v-934q0 -94 3 -145t21.5 -124t55.5 -120q53 -70 151.5 -109.5t194.5 -39.5t194.5 40t151.5 109q37 47 55.5 120t21.5 124t3 145v934h98v-962q0 -102 -3 -155.5t-27.5 -129.5t-73.5 -137q-76 -88 -187.5 -134t-232.5 -46t-232.5 46t-187.5 134 q-49 61 -73.5 137t-27.5 129.5t-3 155.5zM393 1731l283 217l282 -217l-77 -60l-205 158l-209 -158z" />
<glyph unicode="&#xdc;" horiz-adv-x="1351" d="M152 582v962h98v-934q0 -94 3 -145t21.5 -124t55.5 -120q53 -70 151.5 -109.5t194.5 -39.5t194.5 40t151.5 109q37 47 55.5 120t21.5 124t3 145v934h98v-962q0 -102 -3 -155.5t-27.5 -129.5t-73.5 -137q-76 -88 -187.5 -134t-232.5 -46t-232.5 46t-187.5 134 q-49 61 -73.5 137t-27.5 129.5t-3 155.5zM403 1825q0 35 24 58.5t58.5 23.5t58 -23.5t23.5 -58.5t-23.5 -58.5t-58 -23.5t-58.5 23.5t-24 58.5zM786 1825q0 35 25 58.5t57.5 23.5t57 -23.5t24.5 -58.5t-24.5 -58.5t-57 -23.5t-57.5 23.5t-25 58.5z" />
<glyph unicode="&#xdd;" horiz-adv-x="1144" d="M8 1544h109l454 -782l455 782h109l-514 -885v-659h-99v659zM467 1688l207 301l125 -39l-254 -297z" />
<glyph unicode="&#xde;" horiz-adv-x="966" d="M166 0v1544h98v-327h174q111 0 190 -17.5t144 -73.5q139 -119 139 -317q0 -86 -33.5 -170t-95.5 -135q-113 -98 -344 -98h-174v-406h-98zM264 498h178q176 0 271 84q100 92 100 231q0 164 -117 250q-80 61 -270 61h-162v-626z" />
<glyph unicode="&#xdf;" horiz-adv-x="1093" d="M57 860v86h101v385q0 184 69 268q92 117 273 117q141 0 233 -95t92 -237q0 -94 -48 -170.5t-132 -107.5v-4q170 -47 276.5 -199.5t106.5 -333.5q0 -229 -163 -394t-392 -187v86q195 29 329 166t134 329q0 201 -130 332t-333 152v86q117 2 188.5 71.5t71.5 184.5 q0 104 -70.5 169.5t-177.5 65.5q-139 0 -196 -98q-39 -68 -39 -234v-1298h-92v860h-101z" />
<glyph unicode="&#xe0;" horiz-adv-x="1146" d="M66 479q0 211 126.5 349.5t335.5 138.5q111 0 208.5 -48.5t156.5 -136.5h4v164h92v-946h-92v170h-4q-51 -88 -151.5 -139t-209.5 -51q-211 0 -338.5 143t-127.5 356zM158 479q0 -170 103.5 -291.5t268.5 -121.5q174 0 273.5 121.5t99.5 301.5q0 168 -104.5 280 t-274.5 112q-158 0 -262 -121t-104 -281zM377 1423l125 39l207 -301l-78 -35z" />
<glyph unicode="&#xe1;" horiz-adv-x="1146" d="M66 479q0 211 126.5 349.5t335.5 138.5q111 0 208.5 -48.5t156.5 -136.5h4v164h92v-946h-92v170h-4q-51 -88 -151.5 -139t-209.5 -51q-211 0 -338.5 143t-127.5 356zM158 479q0 -170 103.5 -291.5t268.5 -121.5q174 0 273.5 121.5t99.5 301.5q0 168 -104.5 280 t-274.5 112q-158 0 -262 -121t-104 -281zM438 1161l207 301l125 -39l-254 -297z" />
<glyph unicode="&#xe2;" horiz-adv-x="1146" d="M66 479q0 211 126.5 349.5t335.5 138.5q111 0 208.5 -48.5t156.5 -136.5h4v164h92v-946h-92v170h-4q-51 -88 -151.5 -139t-209.5 -51q-211 0 -338.5 143t-127.5 356zM158 479q0 -170 103.5 -291.5t268.5 -121.5q174 0 273.5 121.5t99.5 301.5q0 168 -104.5 280 t-274.5 112q-158 0 -262 -121t-104 -281zM291 1204l282 217l283 -217l-78 -59l-205 158l-208 -158z" />
<glyph unicode="&#xe3;" horiz-adv-x="1146" d="M66 479q0 211 126.5 349.5t335.5 138.5q111 0 208.5 -48.5t156.5 -136.5h4v164h92v-946h-92v170h-4q-51 -88 -151.5 -139t-209.5 -51q-211 0 -338.5 143t-127.5 356zM158 479q0 -170 103.5 -291.5t268.5 -121.5q174 0 273.5 121.5t99.5 301.5q0 168 -104.5 280 t-274.5 112q-158 0 -262 -121t-104 -281zM279 1245q23 55 64.5 93t94.5 38q49 0 144 -39q104 -41 129 -41q70 0 98 84l59 -45q-14 -55 -61 -94t-105 -39q-35 0 -133 41q-94 41 -139 41q-61 0 -90 -84z" />
<glyph unicode="&#xe4;" horiz-adv-x="1146" d="M66 479q0 211 126.5 349.5t335.5 138.5q111 0 208.5 -48.5t156.5 -136.5h4v164h92v-946h-92v170h-4q-51 -88 -151.5 -139t-209.5 -51q-211 0 -338.5 143t-127.5 356zM158 479q0 -170 103.5 -291.5t268.5 -121.5q174 0 273.5 121.5t99.5 301.5q0 168 -104.5 280 t-274.5 112q-158 0 -262 -121t-104 -281zM301 1298.5q0 32.5 23.5 57t58.5 24.5t58.5 -24.5t23.5 -57t-23.5 -57t-58.5 -24.5t-58.5 24.5t-23.5 57zM684 1298.5q0 32.5 24.5 57t57.5 24.5t57.5 -24.5t24.5 -57t-24.5 -57t-57.5 -24.5t-57.5 24.5t-24.5 57z" />
<glyph unicode="&#xe5;" horiz-adv-x="1146" d="M66 479q0 211 126.5 349.5t335.5 138.5q111 0 208.5 -48.5t156.5 -136.5h4v164h92v-946h-92v170h-4q-51 -88 -151.5 -139t-209.5 -51q-211 0 -338.5 143t-127.5 356zM158 479q0 -170 103.5 -291.5t268.5 -121.5q174 0 273.5 121.5t99.5 301.5q0 168 -104.5 280 t-274.5 112q-158 0 -262 -121t-104 -281zM395 1284q0 74 52.5 126t126 52t126 -52t52.5 -126t-52.5 -126t-126 -52t-126 52t-52.5 126zM477 1284q0 -39 27.5 -67.5t68.5 -28.5t69 28.5t28 67.5t-28 67.5t-69 28.5t-68.5 -28.5t-27.5 -67.5z" />
<glyph unicode="&#xe6;" horiz-adv-x="1738" d="M43 274q0 147 127 222t285 75q188 0 305 -100q2 180 -80 295t-256 115q-135 0 -318 -86v94q154 78 336 78q131 0 228.5 -69t142.5 -193q51 117 161.5 189.5t239.5 72.5q207 0 332 -146.5t127 -357.5h-821q4 -166 107.5 -281.5t265.5 -115.5q106 0 194 58t144 155l79 -54 q-74 -115 -182 -180t-239 -65q-123 0 -231.5 62t-155.5 171h-5q-31 -117 -144.5 -175t-248.5 -58q-152 0 -272.5 75.5t-120.5 218.5zM135 276q0 -78 51.5 -128t116 -66t141.5 -16q115 0 215.5 53t100.5 157q0 109 -92.5 159t-212.5 50q-76 0 -143.5 -16t-122 -66.5 t-54.5 -126.5zM852 549h729q-16 133 -120.5 232.5t-239.5 99.5q-143 0 -250 -98.5t-119 -233.5z" />
<glyph unicode="&#xe7;" horiz-adv-x="976" d="M66 475q0 207 140 349.5t347 142.5q193 0 330 -117v-123q-141 154 -334 154q-164 0 -277.5 -121t-113.5 -285t112.5 -286.5t276.5 -122.5q209 0 348 170v-125q-150 -131 -344 -131q-209 0 -347 143t-138 352zM336 -336l190 295l115 -45l-227 -289z" />
<glyph unicode="&#xe8;" horiz-adv-x="1044" d="M66 475q0 205 128 348.5t330 143.5q209 0 333 -145.5t122 -356.5h-821v-13q0 -169 103 -276q108 -111 276 -110q106 0 193 58t140 157l78 -45q-135 -256 -424 -256q-205 0 -331.5 144t-126.5 351zM158 551h729q-18 135 -118.5 232.5t-242.5 97.5q-143 0 -249.5 -97.5 t-118.5 -232.5zM326 1423l125 39l206 -301l-77 -35z" />
<glyph unicode="&#xe9;" horiz-adv-x="1044" d="M66 475q0 205 128 348.5t330 143.5q209 0 333 -145.5t122 -356.5h-821v-13q0 -169 103 -276q108 -111 276 -110q106 0 193 58t140 157l78 -45q-135 -256 -424 -256q-205 0 -331.5 144t-126.5 351zM158 551h729q-18 135 -118.5 232.5t-242.5 97.5q-143 0 -249.5 -97.5 t-118.5 -232.5zM387 1161l207 301l125 -39l-254 -297z" />
<glyph unicode="&#xea;" horiz-adv-x="1044" d="M66 475q0 205 128 348.5t330 143.5q209 0 333 -145.5t122 -356.5h-821v-13q0 -169 103 -276q108 -111 276 -110q106 0 193 58t140 157l78 -45q-135 -256 -424 -256q-205 0 -331.5 144t-126.5 351zM158 551h729q-18 135 -118.5 232.5t-242.5 97.5q-143 0 -249.5 -97.5 t-118.5 -232.5zM240 1204l282 217l283 -217l-78 -59l-205 158l-209 -158z" />
<glyph unicode="&#xeb;" horiz-adv-x="1044" d="M66 475q0 205 128 348.5t330 143.5q209 0 333 -145.5t122 -356.5h-821v-13q0 -169 103 -276q108 -111 276 -110q106 0 193 58t140 157l78 -45q-135 -256 -424 -256q-205 0 -331.5 144t-126.5 351zM158 551h729q-18 135 -118.5 232.5t-242.5 97.5q-143 0 -249.5 -97.5 t-118.5 -232.5zM250 1298.5q0 32.5 24.5 57t57.5 24.5t57.5 -24.5t24.5 -57t-24.5 -57t-57.5 -24.5t-57.5 24.5t-24.5 57zM633 1298.5q0 32.5 23.5 57t58.5 24.5t58.5 -24.5t23.5 -57t-23.5 -57t-58.5 -24.5t-58.5 24.5t-23.5 57z" />
<glyph unicode="&#xec;" horiz-adv-x="479" d="M41 1423l125 39l207 -301l-78 -35zM193 0v946h92v-946h-92z" />
<glyph unicode="&#xed;" horiz-adv-x="479" d="M102 1161l207 301l125 -39l-254 -297zM193 0v946h92v-946h-92z" />
<glyph unicode="&#xee;" horiz-adv-x="479" d="M-43 1204l283 217l282 -217l-78 -59l-204 158l-209 -158zM193 0v946h92v-946h-92z" />
<glyph unicode="&#xef;" horiz-adv-x="479" d="M-33 1298.5q0 32.5 24.5 57t57.5 24.5t57.5 -24.5t24.5 -57t-24.5 -57t-57.5 -24.5t-57.5 24.5t-24.5 57zM193 0v946h92v-946h-92zM350 1298.5q0 32.5 23.5 57t58.5 24.5t58.5 -24.5t23.5 -57t-23.5 -57t-58.5 -24.5t-58.5 24.5t-23.5 57z" />
<glyph unicode="&#xf0;" horiz-adv-x="1120" d="M66 473q0 201 144 348.5t353 147.5q193 0 346 -144q-57 166 -143 295t-248 277l-299 -168l-51 69l281 154q-98 82 -267 182l66 62q152 -88 284 -195l318 178l51 -67l-301 -168q211 -186 333 -418.5t122 -493.5q0 -272 -146.5 -412t-351.5 -140t-348 145t-143 348z M158 471q0 -164 113.5 -284.5t279.5 -120.5q174 0 293 116.5t119 288.5q0 174 -118 292t-294 118q-166 0 -279.5 -121t-113.5 -289z" />
<glyph unicode="&#xf1;" horiz-adv-x="1003" d="M158 0v946h92v-147h4q41 80 114.5 124t166.5 44q174 0 242.5 -99.5t68.5 -296.5v-571h-92v571q0 74 -7.5 122t-29 95.5t-69.5 70t-122 22.5q-276 0 -276 -414v-467h-92zM207 1245q23 55 64.5 93t95.5 38q49 0 143 -39q104 -41 129 -41q70 0 98 84l60 -45 q-14 -55 -61.5 -94t-104.5 -39q-35 0 -133 41q-94 41 -140 41q-61 0 -90 -84z" />
<glyph unicode="&#xf2;" horiz-adv-x="1120" d="M66 471q0 205 143 350.5t348 145.5q209 0 353.5 -142.5t144.5 -351.5t-144.5 -351t-353.5 -142q-203 0 -347 144t-144 347zM158 471q0 -164 113.5 -284.5t279.5 -120.5q174 0 293 116.5t119 288.5q0 174 -118 292t-294 118q-166 0 -279.5 -121t-113.5 -289zM362 1423 l125 39l207 -301l-78 -35z" />
<glyph unicode="&#xf3;" horiz-adv-x="1120" d="M66 471q0 205 143 350.5t348 145.5q209 0 353.5 -142.5t144.5 -351.5t-144.5 -351t-353.5 -142q-203 0 -347 144t-144 347zM158 471q0 -164 113.5 -284.5t279.5 -120.5q174 0 293 116.5t119 288.5q0 174 -118 292t-294 118q-166 0 -279.5 -121t-113.5 -289zM424 1161 l207 301l125 -39l-254 -297z" />
<glyph unicode="&#xf4;" horiz-adv-x="1120" d="M66 471q0 205 143 350.5t348 145.5q209 0 353.5 -142.5t144.5 -351.5t-144.5 -351t-353.5 -142q-203 0 -347 144t-144 347zM158 471q0 -164 113.5 -284.5t279.5 -120.5q174 0 293 116.5t119 288.5q0 174 -118 292t-294 118q-166 0 -279.5 -121t-113.5 -289zM279 1204 l282 217l283 -217l-78 -59l-205 158l-209 -158z" />
<glyph unicode="&#xf5;" horiz-adv-x="1120" d="M66 471q0 205 143 350.5t348 145.5q209 0 353.5 -142.5t144.5 -351.5t-144.5 -351t-353.5 -142q-203 0 -347 144t-144 347zM158 471q0 -164 113.5 -284.5t279.5 -120.5q174 0 293 116.5t119 288.5q0 174 -118 292t-294 118q-166 0 -279.5 -121t-113.5 -289zM264 1245 q23 55 65 93t95 38q49 0 143 -39q104 -41 129 -41q70 0 99 84l59 -45q-14 -55 -61.5 -94t-104.5 -39q-35 0 -133 41q-94 41 -139 41q-61 0 -90 -84z" />
<glyph unicode="&#xf6;" horiz-adv-x="1120" d="M66 471q0 205 143 350.5t348 145.5q209 0 353.5 -142.5t144.5 -351.5t-144.5 -351t-353.5 -142q-203 0 -347 144t-144 347zM158 471q0 -164 113.5 -284.5t279.5 -120.5q174 0 293 116.5t119 288.5q0 174 -118 292t-294 118q-166 0 -279.5 -121t-113.5 -289zM287 1298.5 q0 32.5 24.5 57t57 24.5t57.5 -24.5t25 -57t-25 -57t-57.5 -24.5t-57 24.5t-24.5 57zM670 1298.5q0 32.5 23.5 57t58 24.5t58.5 -24.5t24 -57t-24 -57t-58.5 -24.5t-58 24.5t-23.5 57z" />
<glyph unicode="&#xf7;" d="M111 475v98h1048v-98h-1048zM551 84q0 35 24.5 59.5t59.5 24.5t59.5 -24.5t24.5 -59.5t-24.5 -59.5t-59.5 -24.5t-59.5 24.5t-24.5 59.5zM551 964.5q0 34.5 24.5 59.5t59.5 25t59.5 -25t24.5 -59.5t-24.5 -59t-59.5 -24.5t-59.5 24.5t-24.5 59z" />
<glyph unicode="&#xf8;" horiz-adv-x="1120" d="M57 35l123 123q-115 133 -114 313q0 205 143 350.5t348 145.5q184 0 320 -113l129 129l57 -59l-127 -127q119 -131 119 -324q0 -209 -144.5 -351t-353.5 -142q-186 0 -321 122l-123 -122zM158 471q0 -141 86 -250l569 570q-113 90 -262 90q-166 0 -279.5 -121 t-113.5 -289zM297 164q109 -98 254 -98q174 0 293 116.5t119 288.5q0 152 -93 260z" />
<glyph unicode="&#xf9;" horiz-adv-x="966" d="M143 379v567h93v-534q0 -80 7 -133.5t30.5 -106.5t75.5 -79.5t134 -26.5t134.5 26.5t76 79.5t30.5 106.5t7 133.5v534h92v-567q0 -68 -1 -99.5t-15 -84t-41 -89.5q-96 -127 -282.5 -126.5t-282.5 126.5q-27 37 -41.5 89.5t-15.5 84t-1 99.5zM266 1423l125 39l207 -301 l-78 -35z" />
<glyph unicode="&#xfa;" horiz-adv-x="966" d="M143 379v567h93v-534q0 -80 7 -133.5t30.5 -106.5t75.5 -79.5t134 -26.5t134.5 26.5t76 79.5t30.5 106.5t7 133.5v534h92v-567q0 -68 -1 -99.5t-15 -84t-41 -89.5q-96 -127 -282.5 -126.5t-282.5 126.5q-27 37 -41.5 89.5t-15.5 84t-1 99.5zM369 1161l206 301l125 -39 l-254 -297z" />
<glyph unicode="&#xfb;" horiz-adv-x="966" d="M143 379v567h93v-534q0 -80 7 -133.5t30.5 -106.5t75.5 -79.5t134 -26.5t134.5 26.5t76 79.5t30.5 106.5t7 133.5v534h92v-567q0 -68 -1 -99.5t-15 -84t-41 -89.5q-96 -127 -282.5 -126.5t-282.5 126.5q-27 37 -41.5 89.5t-15.5 84t-1 99.5zM201 1204l282 217l283 -217 l-78 -59l-205 158l-209 -158z" />
<glyph unicode="&#xfc;" horiz-adv-x="966" d="M143 379v567h93v-534q0 -80 7 -133.5t30.5 -106.5t75.5 -79.5t134 -26.5t134.5 26.5t76 79.5t30.5 106.5t7 133.5v534h92v-567q0 -68 -1 -99.5t-15 -84t-41 -89.5q-96 -127 -282.5 -126.5t-282.5 126.5q-27 37 -41.5 89.5t-15.5 84t-1 99.5zM211 1298.5q0 32.5 23.5 57 t58.5 24.5t58.5 -24.5t23.5 -57t-23.5 -57t-58.5 -24.5t-58.5 24.5t-23.5 57zM594 1298.5q0 32.5 24.5 57t57.5 24.5t57.5 -24.5t24.5 -57t-24.5 -57t-57.5 -24.5t-57.5 24.5t-24.5 57z" />
<glyph unicode="&#xfd;" horiz-adv-x="942" d="M-14 946h96l403 -856l363 856h94l-635 -1499h-94l227 537zM367 1161l206 301l125 -39l-254 -297z" />
<glyph unicode="&#xfe;" horiz-adv-x="1146" d="M158 -553v2243h92v-914h4q51 88 151.5 139.5t208.5 51.5q211 0 339 -144.5t128 -357.5q0 -211 -127 -348t-336 -137q-113 0 -210 48t-154 136h-4v-717h-92zM244 453q0 -168 104.5 -277.5t272.5 -109.5q162 0 265 116.5t103 280.5q0 170 -102.5 294t-270.5 124 q-174 0 -273 -124t-99 -304z" />
<glyph unicode="&#xff;" horiz-adv-x="942" d="M-14 946h96l403 -856l363 856h94l-635 -1499h-94l227 537zM209 1298.5q0 32.5 24.5 57t57.5 24.5t57.5 -24.5t24.5 -57t-24.5 -57t-57.5 -24.5t-57.5 24.5t-24.5 57zM592 1298.5q0 32.5 23.5 57t58.5 24.5t58.5 -24.5t23.5 -57t-23.5 -57t-58.5 -24.5t-58.5 24.5 t-23.5 57z" />
<glyph unicode="&#x152;" horiz-adv-x="2443" d="M74 772q0 328 238.5 560.5t568.5 232.5q215 0 403.5 -116t282.5 -306h4v401h737v-92h-639v-561h625v-92h-625v-707h639v-92h-737v397h-4q-92 -193 -283.5 -305t-411.5 -112q-152 0 -297 59t-256 164q-245 233 -245 569zM172 772q0 -297 215 -500q96 -94 224 -147t263 -53 q139 0 272.5 57t231.5 160q190 201 191 483q0 287 -203 494t-487.5 207t-495.5 -208t-211 -493z" />
<glyph unicode="&#x153;" horiz-adv-x="1935" d="M66 471q0 209 146 352.5t355 143.5q139 0 261 -75t178 -200q49 129 159.5 202t249.5 73q213 0 335 -143.5t120 -358.5h-817q-1 -14 -1 -28q0 -146 101 -254q111 -118 272 -117q229 0 334 219l78 -47q-61 -123 -171 -190.5t-249 -67.5q-135 0 -248.5 76.5t-162.5 201.5 q-59 -125 -181.5 -201.5t-261.5 -76.5q-209 0 -353 142t-144 349zM158 465q0 -160 117.5 -279.5t279.5 -119.5q170 0 288 118.5t118 286.5q0 166 -115 288t-281 122q-176 0 -291.5 -120t-115.5 -296zM1053 551h725q-18 135 -118.5 232.5t-242.5 97.5q-143 0 -247.5 -97.5 t-116.5 -232.5z" />
<glyph unicode="&#x178;" horiz-adv-x="1144" d="M8 1544h109l454 -782l455 782h109l-514 -885v-659h-99v659zM324 1825q0 35 24.5 58.5t57 23.5t57 -23.5t24.5 -58.5t-24.5 -58.5t-57 -23.5t-57 23.5t-24.5 58.5zM707 1825q0 35 23.5 58.5t58 23.5t58 -23.5t23.5 -58.5t-23.5 -58.5t-58 -23.5t-58 23.5t-23.5 58.5z" />
<glyph unicode="&#x2c6;" horiz-adv-x="872" d="M154 1204l282 217l283 -217l-78 -59l-205 158l-209 -158z" />
<glyph unicode="&#x2dc;" horiz-adv-x="899" d="M154 1245q23 55 64.5 93t94.5 38q49 0 144 -39q104 -41 129 -41q70 0 98 84l59 -45q-14 -55 -61 -94t-104 -39q-35 0 -134 41q-94 41 -139 41q-61 0 -90 -84z" />
<glyph unicode="&#x2013;" horiz-adv-x="1024" d="M0 608v92h1024v-92h-1024z" />
<glyph unicode="&#x2014;" horiz-adv-x="2048" d="M266 608v92h1516v-92h-1516z" />
<glyph unicode="&#x2018;" horiz-adv-x="530" d="M150 1100l169 465l62 -23l-139 -469z" />
<glyph unicode="&#x2019;" horiz-adv-x="530" d="M150 1096l139 469l92 -27l-170 -465z" />
<glyph unicode="&#x201a;" horiz-adv-x="530" d="M150 -317l139 469l92 -29l-170 -463z" />
<glyph unicode="&#x201c;" horiz-adv-x="798" d="M150 1100l169 465l62 -23l-139 -469zM418 1100l170 465l61 -23l-139 -469z" />
<glyph unicode="&#x201d;" horiz-adv-x="798" d="M150 1096l139 469l92 -27l-170 -465zM418 1096l139 469l92 -27l-170 -465z" />
<glyph unicode="&#x201e;" horiz-adv-x="798" d="M150 -317l139 469l92 -29l-170 -463zM418 -317l139 469l92 -29l-170 -463z" />
<glyph unicode="&#x2022;" d="M250 772q0 162 111.5 274.5t275.5 112.5t274.5 -112.5t110.5 -274.5q0 -160 -110.5 -272.5t-274.5 -112.5t-275.5 112.5t-111.5 272.5z" />
<glyph unicode="&#x2026;" horiz-adv-x="2048" d="M258 69.5q0 34.5 24.5 59.5t59.5 25t59.5 -25t24.5 -59.5t-24.5 -59t-59.5 -24.5t-59.5 24.5t-24.5 59zM940 69.5q0 34.5 24.5 59.5t59.5 25t59.5 -25t24.5 -59.5t-24.5 -59t-59.5 -24.5t-59.5 24.5t-24.5 59zM1622 69.5q0 34.5 24.5 59.5t59.5 25t59.5 -25t24.5 -59.5 t-24.5 -59t-59.5 -24.5t-59.5 24.5t-24.5 59z" />
<glyph unicode="&#x2039;" horiz-adv-x="567" d="M72 655l299 346l59 -55l-248 -291l248 -290l-59 -56z" />
<glyph unicode="&#x203a;" horiz-adv-x="567" d="M137 365l248 290l-248 291l60 55l299 -346l-299 -346z" />
<glyph unicode="&#x20ac;" d="M72 596l28 82h115q-4 45 -4 94q0 43 4 96h-143l28 82h121q33 276 172 444.5t398 168.5q238 0 376 -123v-107q-143 139 -370 140q-213 0 -334 -148.5t-144 -374.5h732l-31 -82h-709q-4 -49 -4 -96q0 -49 4 -94h639l-28 -82h-600q29 -252 151.5 -390t325.5 -138 q215 0 368 139v-107q-55 -49 -154.5 -83.5t-221.5 -34.5q-494 0 -568 614h-151z" />
<glyph unicode="&#x2122;" horiz-adv-x="1925" d="M119 1458v86h655v-86h-285v-776h-86v776h-284zM944 682v862h148l280 -670h4l285 670h147v-862h-86v776h-8l-338 -776h-4l-334 776h-8v-776h-86z" />
<glyph unicode="&#xe000;" horiz-adv-x="945" d="M0 945h945v-945h-945v945z" />
<glyph unicode="&#xfb01;" horiz-adv-x="972" d="M53 860v86h105v424q0 166 37 232q66 115 211 114q45 0 81 -14v-84q-74 12 -75 12q-57 0 -92 -24.5t-49.5 -72.5t-17.5 -84t-3 -97v-406h237v-86h-237v-860h-92v860h-105zM649 1261.5q0 34.5 24.5 59.5t59.5 25t59.5 -25t24.5 -59.5t-24.5 -59t-59.5 -24.5t-59.5 24.5 t-24.5 59zM686 0v946h92v-946h-92z" />
<glyph unicode="&#xfb02;" horiz-adv-x="899" d="M53 860v86h105v424q0 166 37 232q66 115 211 114q45 0 81 -14v-84q-74 12 -75 12q-57 0 -92 -24.5t-49.5 -72.5t-17.5 -84t-3 -97v-406h237v-86h-237v-860h-92v860h-105zM649 0v1690h92v-1690h-92z" />
<glyph unicode="&#xfb03;" horiz-adv-x="1462" d="M53 860v86h105v424q0 166 37 232q66 115 211 114q45 0 81 -14v-84q-74 12 -75 12q-57 0 -92 -24.5t-49.5 -72.5t-17.5 -84t-3 -97v-406h237v-86h-237v-860h-92v860h-105zM545 860v86h104v424q0 166 37 232q66 115 211 114q45 0 82 -14v-84q-74 12 -76 12q-57 0 -92 -24.5 t-49 -72.5t-17.5 -84t-3.5 -97v-406h238v-86h-238v-860h-92v860h-104zM1139 1261.5q0 34.5 24.5 59.5t59 25t59.5 -25t25 -59.5t-25 -59t-59.5 -24.5t-59 24.5t-24.5 59zM1176 0v946h92v-946h-92z" />
<glyph unicode="&#xfb04;" horiz-adv-x="1390" d="M53 860v86h105v424q0 166 37 232q66 115 211 114q45 0 81 -14v-84q-74 12 -75 12q-57 0 -92 -24.5t-49.5 -72.5t-17.5 -84t-3 -97v-406h237v-86h-237v-860h-92v860h-105zM545 860v86h104v424q0 166 37 232q66 115 211 114q45 0 82 -14v-84q-74 12 -76 12q-57 0 -92 -24.5 t-49 -72.5t-17.5 -84t-3.5 -97v-406h238v-86h-238v-860h-92v860h-104zM1141 0v1690h92v-1690h-92z" />
</font>
</defs>
</svg>
